<svg id="レイヤー_1" data-name="レイヤー 1" xmlns="http://www.w3.org/2000/svg" viewBox="0 0 417.36 231.13"><defs><style>.cls-1{fill:none;stroke:#fadd00;stroke-linecap:round;stroke-linejoin:round;stroke-width:4px;}.cls-1,.cls-2{opacity:0.6;}.cls-2{fill:#01ddfa;}.cls-3,.cls-4{fill:#0b1934;}.cls-4{font-size:29.4px;font-family:FuturaPT-Demi, Futura PT;font-weight:300;}</style></defs><polyline class="cls-1" points="2 115.57 3.15 115.02 4.3 113.44 5.45 111.1 6.59 108.37 7.74 105.71 8.89 103.63 10.04 102.59 11.19 102.97 12.33 105.01 13.48 108.75 14.63 114.04 15.78 120.53 16.93 127.69 18.07 134.86 19.22 141.3 20.37 146.28 21.52 149.12 22.67 149.31 23.82 146.56 24.96 140.81 26.11 132.3 27.26 121.55 28.41 109.32 29.56 96.57 30.7 84.38 31.85 73.84 33 65.99 34.15 61.69 35.3 61.55 36.45 65.85 37.59 74.49 38.74 87 39.89 102.56 41.04 120.05 42.19 138.09 43.34 155.24 44.48 170.02 45.63 181.11 46.78 187.43 47.93 188.25 49.08 183.27 50.23 172.66 51.37 157.06 52.52 137.55 53.67 115.57 54.82 92.8 55.97 71.07 57.11 52.16 58.26 37.68 59.41 28.95 60.56 26.82 61.71 31.68 62.85 43.31 64 60.97 65.15 83.4 66.3 108.93 67.45 135.59 68.6 161.28 69.75 183.94 70.89 201.68 72.04 213.01 73.19 216.89 74.34 212.87 75.49 201.13 76.63 182.46 77.78 158.23 78.93 130.28 80.08 100.75 81.23 71.97 82.38 46.21 83.52 25.56 84.67 11.71 85.82 5.83 86.97 8.47 88.12 19.52 89.26 38.17 90.41 63.04 91.56 92.22 92.71 123.43 93.86 154.24 95.01 182.23 96.15 205.17 97.3 221.23 98.45 229.13 99.6 228.21 100.75 218.52 101.89 200.78 103.04 176.38 104.19 147.21 105.34 115.57 106.49 83.92 107.64 54.76 108.78 30.36 109.93 12.62 111.08 2.92 112.23 2 113.38 9.9 114.53 25.97 115.67 48.91 116.82 76.89 117.97 107.7 119.12 138.92 120.27 168.09 121.42 192.96 122.56 211.62 123.71 222.66 124.86 225.31 126.01 219.42 127.16 205.57 128.3 184.92 129.45 159.17 130.6 130.38 131.75 100.86 132.9 72.9 134.04 48.68 135.19 30.01 136.34 18.27 137.49 14.25 138.64 18.13 139.79 29.45 140.93 47.2 142.08 69.85 143.23 95.55 144.38 122.21 145.53 147.74 146.68 170.17 147.82 187.83 148.97 199.46 150.12 204.31 151.27 202.19 152.42 193.45 153.56 178.98 154.71 160.07 155.86 138.33 157.01 115.57 158.16 93.58 159.31 74.07 160.45 58.47 161.6 47.86 162.75 42.88 163.9 43.7 165.05 50.02 166.19 61.11 167.34 75.9 168.49 93.04 169.64 111.09 170.79 128.57 171.94 144.13 173.08 156.65 174.23 165.29 175.38 169.58 176.53 169.44 177.68 165.14 178.82 157.3 179.97 146.76 181.12 134.56 182.27 121.81 183.42 109.58 184.57 98.83 185.72 90.32 186.86 84.58 188.01 81.82 189.16 82.02 190.31 84.86 191.46 89.83 192.6 96.27 193.75 103.44 194.9 110.6 196.05 117.09 197.2 122.39 198.34 126.13 199.49 128.16 200.64 128.54 201.79 127.5 202.94 125.42 204.09 122.77 205.23 120.03 206.38 117.69 207.53 116.12 208.68 115.57 209.83 116.12 210.97 117.69 212.12 120.03 213.27 122.77 214.42 125.42 215.57 127.5 216.72 128.54 217.87 128.16 219.01 126.13 220.16 122.39 221.31 117.09 222.46 110.6 223.61 103.44 224.75 96.27 225.9 89.83 227.05 84.86 228.2 82.02 229.35 81.82 230.5 84.58 231.64 90.32 232.79 98.83 233.94 109.58 235.09 121.81 236.24 134.56 237.38 146.76 238.53 157.3 239.68 165.14 240.83 169.44 241.98 169.58 243.13 165.29 244.27 156.65 245.42 144.13 246.57 128.57 247.72 111.09 248.87 93.04 250.01 75.9 251.16 61.11 252.31 50.02 253.46 43.7 254.61 42.88 255.76 47.86 256.9 58.47 258.05 74.07 259.2 93.58 260.35 115.57 261.5 138.33 262.64 160.07 263.79 178.98 264.94 193.45 266.09 202.19 267.24 204.31 268.39 199.46 269.53 187.83 270.68 170.17 271.83 147.74 272.98 122.21 274.13 95.55 275.28 69.85 276.42 47.2 277.57 29.45 278.72 18.13 279.87 14.25 281.02 18.27 282.17 30.01 283.31 48.68 284.46 72.9 285.61 100.86 286.76 130.38 287.91 159.17 289.05 184.92 290.2 205.57 291.35 219.42 292.5 225.31 293.65 222.66 294.8 211.62 295.94 192.96 297.09 168.09 298.24 138.92 299.39 107.7 300.54 76.89 301.69 48.91 302.83 25.97 303.98 9.9 305.13 2 306.28 2.92 307.43 12.62 308.57 30.36 309.72 54.76 310.87 83.92 312.02 115.57 313.17 147.21 314.31 176.38 315.46 200.78 316.61 218.52 317.76 228.21 318.91 229.13 320.06 221.23 321.2 205.17 322.35 182.23 323.5 154.24 324.65 123.43 325.8 92.22 326.94 63.04 328.09 38.17 329.24 19.52 330.39 8.47 331.54 5.83 332.69 11.71 333.83 25.56 334.98 46.21 336.13 71.97 337.28 100.75 338.43 130.28 339.58 158.23 340.72 182.46 341.87 201.13 343.02 212.87 344.17 216.89 345.32 213.01 346.46 201.68 347.61 183.94 348.76 161.28 349.91 135.59 351.06 108.93 352.21 83.4 353.35 60.97 354.5 43.31 355.65 31.68 356.8 26.82 357.95 28.95 359.1 37.68 360.24 52.16 361.39 71.07 362.54 92.8 363.69 115.57 364.84 137.55 365.99 157.06 367.13 172.66 368.28 183.27 369.43 188.25 370.58 187.43 371.73 181.11 372.87 170.02 374.02 155.24 375.17 138.09 376.32 120.05 377.47 102.56 378.62 87 379.76 74.49 380.91 65.85 382.06 61.55 383.21 61.69 384.36 65.99 385.5 73.84 386.65 84.38 387.8 96.57 388.95 109.32 390.1 121.55 391.25 132.3 392.39 140.81 393.54 146.56 394.69 149.31 395.84 149.12 396.99 146.28 398.13 141.3 399.28 134.86 400.43 127.69 401.58 120.53 402.73 114.04 403.88 108.75 405.02 105.01 406.17 102.97 407.32 102.59 408.47 103.63 409.62 105.71 410.76 108.37 411.91 111.1 413.06 113.44 414.21 115.02 415.36 115.57"/><path class="cls-2" d="M147.18,344.28a3.49,3.49,0,0,1-2.55-1.11L143.5,342a3.51,3.51,0,0,1-.82-1.47l-1.13-4.12c0-.11-.06-.24-.08-.36l-1.13-6.91a.77.77,0,0,0,0-.15l-1.13-9.5-1.13-11.88-1.14-13.79-1.13-15.28-4.51-66.19-1.13-15.23L129,183.38l-1.12-11.76-1-8-1.12,9.67-1.12,11.81-1.13,13.58-1.12,14.9-4.52,62.94-1.13,14.09-1.13,12.55-1.14,10.62-1.14,8.43a.63.63,0,0,1,0,.19l-1.13,5.86a2.85,2.85,0,0,1-.13.48L111,332a3.49,3.49,0,0,1-1.73,2l-1.13.57a3.5,3.5,0,0,1-4.65-1.46L102.34,331a3.48,3.48,0,0,1-.32-.83l-1.13-4.62a2.56,2.56,0,0,1,0-.27l-1.13-7s0-.08,0-.12l-1.13-9L97.42,298.3l-1.13-12.22L94,259.22,91.77,232l-1.12-12.65-1.13-11.49-1.12-10-1.11-8.15L86.8,187l-.5,2.66L85.18,197l-1.12,8.58-1.13,9.5-4.51,40.09-1.13,8.91L76.15,272,75,278.73l0,.15-1.13,5.22a2.86,2.86,0,0,1-.07.28l-1.13,3.72a3.32,3.32,0,0,1-.24.59l-1.13,2.19a3.55,3.55,0,0,1-1.35,1.42L68.8,293a3.51,3.51,0,0,1-3.8-.18L63.88,292a3.58,3.58,0,0,1-1.07-1.22l-1.13-2.16a4.4,4.4,0,0,1-.21-.5l-1.13-3.35a2.17,2.17,0,0,1-.07-.24l-1.13-4.34,0-.13L58,274.9l-1.14-5.74L53.45,251.3l-1.12-5.43-1.1-4.77L50.14,237l-1-3.13-.75-1.68-.83,1.37-1.07,2.09-2.23,4.55a.54.54,0,0,1,0,.11L43,242.47l-.12.21-1.13,1.81a3,3,0,0,1-.26.36l-1.13,1.38a3.41,3.41,0,0,1-.58.56l-1.13.86a3.42,3.42,0,0,1-1.24.61l-1.13.29a3.5,3.5,0,1,1-1.76-6.77l.44-.12.25-.18.72-.89,1-1.52,1-2,2.23-4.56,1.17-2.26a2,2,0,0,1,.11-.2l1.13-1.87c.08-.14.17-.26.26-.39L44,226.42a3.44,3.44,0,0,1,.71-.66l1.13-.8a3.54,3.54,0,0,1,1.8-.65l1.13-.07a3.46,3.46,0,0,1,2.16.58l1.13.75a3.43,3.43,0,0,1,.94.92l1.13,1.63a3.86,3.86,0,0,1,.32.56l1.12,2.53a3.24,3.24,0,0,1,.13.33l1.13,3.4.06.19L58,239.34l0,.13,1.13,4.91,1.14,5.55,4.52,23.53,1.1,5L67,282.59l0-.11,1.08-5,1.12-6.54,1.11-7.76,1.12-8.81,1.13-9.61L76,214.31l1.13-9.56,1.14-8.69,1.14-7.52a.69.69,0,0,1,0-.13l1.13-5.94a2.38,2.38,0,0,1,0-.26L81.72,178a3.58,3.58,0,0,1,.26-.67l1.13-2.23a3.5,3.5,0,0,1,2.73-1.9l1.13-.12a3.51,3.51,0,0,1,3.46,1.79l1.12,2a3.36,3.36,0,0,1,.32.79L93,182a1.36,1.36,0,0,1,.06.29l1.13,6.33,0,.14,1.12,8.3,1.14,10.14,1.14,11.57,1.13,12.7,4.51,54,1.13,12.15,1.13,10.76,1.32,10.19.76-5.6,1.11-10.47L109.84,290,111,276l1.13-15.2,3.38-47.71,1.13-14.94,1.14-13.65,1.13-11.92,1.13-9.82a.68.68,0,0,0,0-.14l1.13-7.29.06-.3,1.13-4.59a3.35,3.35,0,0,1,.47-1.08l1.13-1.73a3.49,3.49,0,0,1,5.48-.47l1.13,1.2a3.51,3.51,0,0,1,.82,1.47L132.5,154c0,.12.06.24.08.36l1.13,6.91c0,.05,0,.1,0,.15l1.13,9.5L136,182.76l1.13,13.78,1.13,15.28L142.78,278l1.12,15.24L145,307l1.12,11.75.95,8,1.12-9.67,1.12-11.81,1.13-13.58,1.13-14.9,4.51-62.94,1.13-14.09,1.13-12.55,1.14-10.62,1.14-8.43,0-.19,1.13-5.85a2.72,2.72,0,0,1,.13-.49l1.13-3.24a3.52,3.52,0,0,1,1.73-2l1.13-.57a3.5,3.5,0,0,1,4.65,1.46l1.13,2.08a3.48,3.48,0,0,1,.32.83l1.13,4.62.06.27,1.12,7a.5.5,0,0,1,0,.12l1.13,9L176.63,192l1.13,12.22L180,231.11l2.26,27.19L183.41,271l1.12,11.49,1.13,10,1.1,8.15.49,2.74.51-2.65,1.12-7.39,1.11-8.58,1.13-9.49,4.51-40.1,1.13-8.91,1.14-7.91,1.14-6.7,0-.15,1.13-5.22c0-.09.05-.18.07-.27l1.13-3.73a4.29,4.29,0,0,1,.24-.59l1.13-2.18a3.53,3.53,0,0,1,1.36-1.43l1.12-.65a3.51,3.51,0,0,1,3.8.18l1.13.81a3.55,3.55,0,0,1,1.06,1.22l1.13,2.16a3.11,3.11,0,0,1,.21.5l1.13,3.35a2.17,2.17,0,0,1,.07.24l1.13,4.35,0,.12,1.13,5.13,1.15,5.73L220.61,239l1.12,5.43,1.09,4.78,1.09,4,1,3.13.75,1.68.83-1.37,1.08-2.09,2.22-4.55,0-.1,1.13-2.13.12-.21,1.13-1.8c.08-.13.17-.25.26-.37l1.13-1.38a3.84,3.84,0,0,1,.58-.56l1.13-.86a3.47,3.47,0,0,1,1.25-.61l1.13-.29a3.46,3.46,0,0,1,1.75,0l1.13.29a3.47,3.47,0,0,1,1.25.61l1.13.86a3.41,3.41,0,0,1,.58.56l1.13,1.38c.09.12.18.24.26.37l1.13,1.8.12.21,1.13,2.13a.93.93,0,0,1,.05.1l3.3,6.64.83,1.37.75-1.68,1-3.13,1.09-4,1.11-4.86,1.11-5.39,4.51-23.49,1.15-5.19,0-.12,1.13-4.35a2.17,2.17,0,0,1,.07-.24l1.13-3.35a4.4,4.4,0,0,1,.21-.5l1.13-2.16a3.55,3.55,0,0,1,1.06-1.22l1.13-.81a3.51,3.51,0,0,1,3.8-.18l1.13.65a3.58,3.58,0,0,1,1.35,1.43l1.13,2.18a3.32,3.32,0,0,1,.24.59L277,206c0,.09.05.18.07.27l1.13,5.22,0,.15,1.13,6.61,1.14,7.94,1.13,8.93,1.14,9.68,3.39,30.48,1.12,9.51,1.12,8.62,1.11,7.31.51,2.65.49-2.74,1.12-8.23,1.11-10,1.13-11.47L295,258.28l4.52-54,1.13-12.2,1.13-10.84,1.14-9.11a.5.5,0,0,1,0-.12l1.13-7a2.56,2.56,0,0,1,.05-.27l1.13-4.62a3.48,3.48,0,0,1,.32-.83l1.13-2.08a3.5,3.5,0,0,1,4.65-1.46l1.13.57a3.52,3.52,0,0,1,1.73,2l1.13,3.24a2.72,2.72,0,0,1,.13.49l1.13,5.85,0,.19,1.13,8.33,1.14,10.67L320,199.66l1.13,14.11,2.26,31.15,2.26,31.82,1.12,14.92,1.13,13.6L329,317.09l1.12,9.6.95-8.06,1.12-11.72,1.13-13.69L334.46,278,339,211.83l1.13-15.26,1.13-13.77L342.36,171l1.14-9.58c0-.05,0-.1,0-.15l1.13-6.91c0-.12.05-.24.08-.36l1.13-4.12a3.51,3.51,0,0,1,.82-1.47l1.13-1.2a3.49,3.49,0,0,1,5.48.47l1.13,1.73a3.35,3.35,0,0,1,.47,1.08L356,155l.06.3,1.13,7.29s0,.09,0,.14l1.13,9.74,1.13,12,1.13,13.66,1.13,14.95L366.27,276l1.13,14.06,1.12,12.47,1.13,10.51.74,5.5.21-1.29,1.12-9,1.12-10.73L374,285.44l2.25-26.79,2.26-27.2,1.13-12.69,1.13-11.55,1.14-10.1,1.14-8.39a.78.78,0,0,1,0-.14l1.13-6.33a2.47,2.47,0,0,1,.06-.29l1.13-4.23a3.36,3.36,0,0,1,.32-.79l1.12-2a3.49,3.49,0,0,1,3.46-1.79l1.13.12a3.5,3.5,0,0,1,2.73,1.9l1.13,2.23a3.58,3.58,0,0,1,.26.67l1.13,4.18.06.26,1.12,5.94,0,.13L399,196l1.14,8.72,1.14,9.58,4.51,40.11,1.13,8.84L408,271l1.1,6.45,1.11,5.11,1.08-4.14,1.11-5.06,1.12-5.6L416.91,250l1.14-5.52,1.14-5,0-.13,1.13-4.21.06-.19,1.13-3.4a3.24,3.24,0,0,1,.13-.33l1.13-2.53a3.06,3.06,0,0,1,.31-.56l1.13-1.63a3.57,3.57,0,0,1,.94-.92l1.13-.75a3.46,3.46,0,0,1,2.16-.58l1.13.07a3.58,3.58,0,0,1,1.81.65l1.12.8a3.44,3.44,0,0,1,.71.66l1.13,1.41c.09.13.18.25.26.39l1.13,1.87a2,2,0,0,1,.11.2l1.13,2.18,2.27,4.64,1,2,.95,1.52.72.89.25.18.45.12a3.5,3.5,0,0,1-1.77,6.77l-1.13-.29a3.42,3.42,0,0,1-1.24-.61l-1.13-.86a3.41,3.41,0,0,1-.58-.56l-1.13-1.38c-.09-.11-.18-.24-.26-.36l-1.13-1.81-.12-.21-1.13-2.12a.54.54,0,0,1-.05-.11l-3.3-6.63-.83-1.38-.75,1.68-1,3.13L426,241.1,424.89,246l-1.12,5.4-4.51,23.48L418.12,280l0,.13L417,284.49a2.17,2.17,0,0,1-.07.24l-1.13,3.35a4.4,4.4,0,0,1-.21.5l-1.13,2.16a3.66,3.66,0,0,1-1.06,1.22l-1.13.81a3.51,3.51,0,0,1-3.8.18l-1.13-.65a3.62,3.62,0,0,1-1.35-1.42l-1.13-2.19a3.32,3.32,0,0,1-.24-.59l-1.13-3.72a2.86,2.86,0,0,1-.07-.28l-1.13-5.22,0-.15-1.13-6.61L400,264.18l-1.13-8.93-1.14-9.68-3.39-30.48-1.12-9.51L392,197l-1.1-7.3-.51-2.66-.49,2.74L388.82,198l-1.12,10-1.12,11.48-1.13,12.63-4.51,54-1.13,12.2-1.13,10.84-1.14,9.11s0,.08,0,.12l-1.13,7a2.56,2.56,0,0,1-.05.27l-1.13,4.62a3.48,3.48,0,0,1-.32.83l-1.13,2.08a3.49,3.49,0,0,1-4.65,1.46L368,334a3.53,3.53,0,0,1-1.73-2l-1.13-3.25a2.85,2.85,0,0,1-.13-.48l-1.13-5.86a1.25,1.25,0,0,1,0-.19l-1.13-8.33-1.14-10.67-1.14-12.56-1.13-14.11L357,245.41l-2.26-31.82-1.12-14.92-1.13-13.6-1.13-11.83-1.11-9.6-1,8.06-1.12,11.72-1.12,13.69L346,212.33l-4.51,66.17-1.13,15.26-1.13,13.77L338,319.38,336.91,329a.77.77,0,0,0,0,.15L335.76,336c0,.12-.05.25-.08.36l-1.13,4.12a3.51,3.51,0,0,1-.82,1.47l-1.13,1.2a3.49,3.49,0,0,1-5.48-.47L326,341a3.26,3.26,0,0,1-.47-1.08l-1.13-4.59a1.59,1.59,0,0,1-.06-.3l-1.13-7.29s0-.09,0-.13l-1.13-9.75-1.13-11.95-1.14-13.67-1.13-14.95-4.51-62.95L313,200.26l-1.12-12.48-1.13-10.51-.74-5.5-.21,1.29-1.12,9-1.12,10.73-1.13,12.13-2.25,26.79-2.26,27.2-1.13,12.69-1.13,11.55-1.14,10.11-1.14,8.38a.78.78,0,0,1,0,.14l-1.13,6.33a2.47,2.47,0,0,1-.06.29l-1.13,4.23a3.36,3.36,0,0,1-.32.79l-1.13,2.05a3.5,3.5,0,0,1-3.45,1.79L289,317.1a3.5,3.5,0,0,1-2.73-1.9L285.16,313a3.29,3.29,0,0,1-.26-.68l-1.13-4.18-.06-.26-1.13-5.94a.59.59,0,0,0,0-.13l-1.13-7.45-1.13-8.72L279.16,276l-4.51-40.11-1.13-8.84-1.12-7.79-1.1-6.45-1.12-5.11-1.07,4.14L268,216.94l-1.11,5.6-3.38,17.81-1.14,5.52-1.14,5,0,.13-1.13,4.21-.06.19-1.13,3.41c0,.11-.08.21-.13.32l-1.13,2.53a2.39,2.39,0,0,1-.32.56l-1.12,1.63a3.65,3.65,0,0,1-1,.93l-1.13.74a3.43,3.43,0,0,1-2.16.58l-1.12-.07a3.66,3.66,0,0,1-1.81-.64l-1.13-.81a3.65,3.65,0,0,1-.7-.66L246,262.5a3.19,3.19,0,0,1-.26-.38l-1.13-1.88a2,2,0,0,1-.11-.2l-1.13-2.18-2.27-4.64-1-2-.95-1.52-.53-.65-.54.65-1,1.52-1,2-2.23,4.56L232.69,260a2,2,0,0,1-.11.2l-1.12,1.88a3.28,3.28,0,0,1-.27.38l-1.13,1.41a3.65,3.65,0,0,1-.7.66l-1.13.81a3.66,3.66,0,0,1-1.8.64l-1.13.07a3.51,3.51,0,0,1-2.16-.58l-1.13-.74a3.65,3.65,0,0,1-.95-.93l-1.12-1.63a3.11,3.11,0,0,1-.32-.56l-1.13-2.53c-.05-.11-.09-.21-.13-.32l-1.13-3.41-.06-.19L216.05,251a.28.28,0,0,1,0-.13L214.89,246l-1.15-5.55-4.52-23.53-1.1-5-1.07-4.14,0,.11-1.08,5-1.11,6.54-1.12,7.76L202.58,236l-1.12,9.61L198.07,276l-1.13,9.56-1.13,8.69-1.14,7.52a.59.59,0,0,0,0,.13l-1.13,5.94-.06.26-1.13,4.18a3.29,3.29,0,0,1-.26.68l-1.13,2.22a3.5,3.5,0,0,1-2.73,1.9l-1.13.13a3.5,3.5,0,0,1-3.45-1.79l-1.13-2.05a3.36,3.36,0,0,1-.32-.79l-1.13-4.23-.06-.29-1.13-6.33a.78.78,0,0,1,0-.14l-1.13-8.3-1.14-10.14-1.13-11.57-1.14-12.7-4.51-54-1.13-12.15L168.54,182l-1.32-10.19-.76,5.6-1.12,10.47-1.12,12.45-1.13,14L162,229.53l-3.38,47.71-1.13,14.94-1.13,13.65-1.14,11.93-1.13,9.82s0,.08,0,.13L152.9,335a1.59,1.59,0,0,1-.06.3l-1.13,4.59a3.35,3.35,0,0,1-.47,1.08l-1.12,1.73a3.5,3.5,0,0,1-2.63,1.57Z" transform="translate(-29.94 -134.43)"/><path class="cls-3" d="M118.53,292.81V278h-.34c-6.7,11.33-18.71,17.17-32.28,17.17-27.81,0-50.47-20.94-50.47-48.41,0-30.39,21.8-51.68,49.79-51.68,13.9,0,25.58,5.15,33,16h.34v-13.4h17.86v95.12Zm.35-47.39c0-18.54-13.4-34-33.14-34-17.85,0-32.45,15.28-32.45,34,0,17.86,14.6,33.48,32.45,33.48C104.28,278.9,118.88,263.45,118.88,245.42Z" transform="translate(-29.94 -134.43)"/><path class="cls-3" d="M301.2,292.81V239.59c0-18-7.56-28.16-22.49-28.16-15.8,0-22.67,8.76-22.67,27.81v53.57H238.19V237.53c0-18.72-8.76-26.1-21.63-26.1-15.8,0-23.53,9.27-23.53,28v53.4H175.18V197.69h16.48V208H192c7.72-9.1,14.93-12.88,27.29-12.88s24.73,6,29.53,16c6.87-10.82,16.31-16,31.42-16,24.72,0,38.8,15.45,38.8,40v57.69Z" transform="translate(-29.94 -134.43)"/><path class="cls-3" d="M425.48,292.81v-10.3h-.34c-4.63,8.07-15.45,12.7-28,12.7-20.43,0-39.66-11-39.66-44.46V197.69h17.85v51.68c0,19.92,7.38,29.53,23.69,29.53,16.49,0,24.9-11.5,24.9-29.87V197.69h17.85v95.12Z" transform="translate(-29.94 -134.43)"/><text class="cls-4" transform="translate(12.44 198.34)">Small DX, Small IoT, Smart Idea.</text></svg>